<!--?xml version="1.0" encoding="utf-8"?-->
<!-- Generator: Adobe Illustrator 15.1.0, SVG Export Plug-In . SVG Version: 6.00 Build 0)  -->

<svg version="1.1" id="_x32_" xmlns="http://www.w3.org/2000/svg" xmlns:xlink="http://www.w3.org/1999/xlink" x="0px" y="0px" width="512px" height="512px" viewBox="0 0 512 512" style="width: 256px; height: 256px; opacity: 1;" xml:space="preserve">
<style type="text/css">

	.st0{fill:#4B4B4B;}

</style>
<g>
	<path class="st0" d="M459.12,295.188c8.203-9.359,13.609-21.297,13.609-34.469c0-33.922-27.594-61.516-61.5-61.516h-78.531
		c-17.25-0.797-21.453-4.063-21.625-4.203l-0.141-0.188c0.469-4.563,8.375-15.719,12.25-21.156
		c5.563-7.813,10.813-15.203,13.813-23.406l1.328-3.594c7.672-20.641,21.969-59.063,6.469-103.219
		C335.401,16.656,314.51,0,290.292,0c-28.203,0-51.656,22.563-57.016,54.891c-1.797,10.875-25.641,51.875-71.156,105.391
		c-12.594,14.813-26.797,27.125-41.828,40.156c-11.875,10.281-24.156,20.906-37.172,33.922
		c-34.141,34.125-50.391,91.984-41.406,147.359c7.766,47.938,32.781,84.688,70.438,103.516
		c30.844,15.422,90.734,24.047,136.406,25.734c19.109,0.703,33.516,1.031,45.328,1.031c22.594,0,33.828-1.266,48.047-2.875
		l4.797-0.531l0.813-0.094l23.078-3.344l0.438-0.063c29.891-4.875,51.578-30.344,51.578-60.563l-0.047-2.172
		c17.454-10.828,28.813-30.078,28.813-52.031c0-7.438-1.141-13.906-3.109-19.516c11.922-11.219,19.344-27.109,19.344-44.609
		C467.636,315.031,464.558,304.375,459.12,295.188z M412.838,299.25h18c7.359,6.656,12.016,16.219,12.016,26.953
		c0,11.453-5.359,21.547-13.609,28.234H405.12c-4.563,0-8.25,3.688-8.25,8.25s3.688,8.266,8.25,8.266h15.063
		c5,5.609,6.438,12.234,6.438,19.375c0,11.391-5.297,21.453-13.469,28.125h-23.203c-4.578,0-8.266,3.703-8.266,8.266
		s3.688,8.25,8.266,8.25h6.531c0.875,3.047,1.375,6.234,1.375,9.563c0,18.25-13.328,33.25-30.781,36.094l-23.078,3.344
		c-16.719,1.844-26.531,3.25-50.109,3.25c-11.063,0-25.156-0.313-44.406-1.031c-43.641-1.609-99.625-9.813-126.25-23.125
		c-74.531-37.266-74.578-159.188-22.578-211.188c29.359-29.359,56.469-47.438,80.344-75.531
		c36.891-43.391,73.016-94.906,76.734-117.406c3.656-22.063,17.984-34.156,32.563-34.156c12.25,0,24.688,8.547,31.125,26.875
		c13.406,38.219-1.203,72.25-7.688,90.063c-6.531,17.844-42.547,46.813-20.594,70.359c8.156,8.75,24.172,11.281,39.016,11.922
		h79.078c20.297,0,36.719,16.438,36.719,36.719c0,8.672-4.906,16.469-11.406,22h-23.704c-4.563,0-8.266,3.688-8.266,8.25
		S408.276,299.25,412.838,299.25z" style="fill: rgb(255, 255, 255);"></path>
</g>
</svg>
