<!--?xml version="1.0" encoding="utf-8"?-->
<!-- Generator: Adobe Illustrator 15.1.0, SVG Export Plug-In . SVG Version: 6.00 Build 0)  -->

<svg version="1.1" id="_x32_" xmlns="http://www.w3.org/2000/svg" xmlns:xlink="http://www.w3.org/1999/xlink" x="0px" y="0px" width="512px" height="512px" viewBox="0 0 512 512" style="width: 256px; height: 256px; opacity: 1;" xml:space="preserve">
<style type="text/css">

	.st0{fill:#4B4B4B;}

</style>
<g>
	<path class="st0" d="M433.051,294.727c14.375,0.891,35.438-14.531,35.438-33.516c0-22.438-18.188-40.656-40.672-40.656h-87.531
		c-16.438-0.703-34.156-3.5-43.203-13.188c-24.297-26.063,15.578-58.156,22.797-77.891c7.188-19.734,23.359-57.422,8.516-99.719
		c-15.594-44.453-63.047-36.922-70.5,8.063c-4.109,24.906-44.125,81.953-84.969,129.984c-26.438,31.109-56.438,51.125-88.953,83.625
		c-57.578,57.578-57.531,192.562,25.016,233.828c29.453,14.734,91.453,23.813,139.766,25.609
		c66.734,2.484,77.438,0.547,104.656-2.469l25.531-3.688c19.328-3.156,34.063-19.781,34.063-39.984
		c0-7.188-2.031-13.844-5.297-19.719c20.781-1.797,37.156-19.031,37.156-40.281c0-12.266-3.703-23.25-20.359-30.594
		c21.359-1.25,38.328-18.766,38.328-40.406C462.832,315.055,450.191,299.493,433.051,294.727z" style="fill: #007bff;"></path>
</g>
</svg>
