<?xml version="1.0" encoding="UTF-8"?>
<svg xmlns="http://www.w3.org/2000/svg" xmlns:xlink="http://www.w3.org/1999/xlink" width="48px" height="48px" viewBox="0 0 48 48" version="1.1">
<g id="surface1">
<path style=" stroke:none;fill-rule:nonzero;fill:rgb(60%,60%,60%);fill-opacity:1;" d="M 19.578125 1.675781 C 9.410156 1.675781 2.507812 6.859375 2.507812 14.925781 C 2.507812 19.886719 4.570312 23.863281 8.554688 26.421875 C 8.820312 26.59375 9.136719 26.617188 9.015625 27.109375 C 8.542969 29.097656 7.714844 32.636719 7.714844 32.636719 C 7.679688 32.789062 7.738281 32.945312 7.859375 33.039062 C 7.980469 33.132812 8.148438 33.144531 8.28125 33.070312 C 8.28125 33.070312 14.117188 29.613281 14.894531 29.183594 C 16.707031 28.144531 18.269531 27.945312 19.445312 27.945312 C 27.507812 27.945312 36.496094 24.71875 36.496094 14.839844 C 36.496094 7.175781 30.320312 1.675781 19.578125 1.675781 Z M 11.597656 17.539062 C 10.476562 17.539062 9.570312 16.628906 9.570312 15.511719 C 9.570312 14.390625 10.476562 13.484375 11.597656 13.484375 C 12.714844 13.484375 13.625 14.390625 13.625 15.511719 C 13.625 16.628906 12.714844 17.539062 11.597656 17.539062 Z M 19.503906 17.539062 C 18.382812 17.539062 17.476562 16.628906 17.476562 15.511719 C 17.476562 14.390625 18.382812 13.484375 19.503906 13.484375 C 20.621094 13.484375 21.53125 14.390625 21.53125 15.511719 C 21.53125 16.628906 20.621094 17.539062 19.503906 17.539062 Z M 27.410156 17.539062 C 26.289062 17.539062 25.382812 16.628906 25.382812 15.511719 C 25.382812 14.390625 26.289062 13.484375 27.410156 13.484375 C 28.527344 13.484375 29.433594 14.390625 29.433594 15.511719 C 29.433594 16.628906 28.527344 17.539062 27.410156 17.539062 Z M 27.410156 17.539062 "/>
<path style=" stroke:none;fill-rule:nonzero;fill:rgb(100%,100%,100%);fill-opacity:1;" d="M 44.488281 19.558594 C 45.363281 19.558594 46.078125 20.273438 46.078125 21.152344 C 46.078125 26.167969 46.078125 39.628906 46.078125 44.644531 C 46.078125 45.527344 45.363281 46.238281 44.488281 46.238281 C 40.117188 46.238281 28.601562 46.238281 24.234375 46.238281 C 23.351562 46.238281 22.640625 45.527344 22.640625 44.644531 C 22.640625 39.628906 22.640625 26.167969 22.640625 21.152344 C 22.640625 20.273438 23.351562 19.558594 24.234375 19.558594 C 28.601562 19.558594 40.117188 19.558594 44.488281 19.558594 Z M 44.488281 19.558594 "/>
<path style=" stroke:none;fill-rule:nonzero;fill:rgb(60%,60%,60%);fill-opacity:1;" d="M 26.539062 21.121094 C 25.265625 21.121094 24.238281 22.140625 24.238281 23.40625 C 24.238281 24.46875 24.238281 29.796875 24.238281 39.390625 L 26.539062 39.390625 L 26.539062 23.40625 L 40.335938 23.40625 L 40.335938 21.121094 C 32.054688 21.121094 27.460938 21.121094 26.539062 21.121094 Z M 31.136719 25.691406 C 29.867188 25.691406 28.839844 26.707031 28.839844 27.96875 C 28.839844 29.566406 28.839844 42.359375 28.839844 43.957031 C 28.839844 45.214844 29.867188 46.238281 31.136719 46.238281 C 32.398438 46.238281 42.519531 46.238281 43.78125 46.238281 C 45.054688 46.238281 46.078125 45.214844 46.078125 43.957031 C 46.078125 42.359375 46.078125 29.566406 46.078125 27.96875 C 46.078125 26.707031 45.054688 25.691406 43.78125 25.691406 C 41.25 25.691406 32.398438 25.691406 31.136719 25.691406 Z M 31.136719 43.957031 L 31.136719 27.96875 L 43.78125 27.96875 L 43.78125 43.957031 Z M 31.136719 43.957031 "/>
</g>
</svg>
