<?xml version="1.0" encoding="UTF-8" standalone="no"?>
<!DOCTYPE svg PUBLIC "-//W3C//DTD SVG 1.1//EN" "http://www.w3.org/Graphics/SVG/1.1/DTD/svg11.dtd">
<svg version="1.1" xmlns="http://www.w3.org/2000/svg" xmlns:xlink="http://www.w3.org/1999/xlink" preserveAspectRatio="xMidYMid meet" viewBox="0 0 100 100" width="48" height="48"><defs><path d="M82.57 4.83C84.56 4.83 86.17 6.44 86.17 8.43C86.17 19.64 86.17 49.69 86.17 60.91C86.17 62.89 84.56 64.5 82.57 64.5C66.99 64.5 23.84 64.5 8.26 64.5C6.28 64.5 4.67 62.89 4.67 60.91C4.67 49.69 4.67 19.64 4.67 8.43C4.67 6.44 6.28 4.83 8.26 4.83C23.84 4.83 66.99 4.83 82.57 4.83Z" id="cGmxfAP2r"></path><path d="M75.36 12.57C77.17 12.57 78.63 14.03 78.63 15.84C78.63 24.01 78.63 45.27 78.63 53.44C78.63 55.25 77.17 56.71 75.36 56.71C62.89 56.71 28.75 56.71 16.28 56.71C14.47 56.71 13.01 55.25 13.01 53.44C13.01 45.27 13.01 24.01 13.01 15.84C13.01 14.03 14.47 12.57 16.28 12.57C28.75 12.57 62.89 12.57 75.36 12.57Z" id="b6Qdizhtn"></path><path d="M33.71 26.37C33.71 28.35 32.07 29.95 30.04 29.95C28.02 29.95 26.38 28.35 26.38 26.37C26.38 24.39 28.02 22.79 30.04 22.79C32.07 22.79 33.71 24.39 33.71 26.37Z" id="fMh0TnqoE"></path><path d="M63.45 36.19L71.02 48.79L55.88 48.79L40.74 48.79L48.31 36.19L55.88 23.59L63.45 36.19Z" id="aWLryBbzT"></path><path d="M39.67 41.07L45.63 48.79L33.71 48.79L21.8 48.79L27.75 41.07L33.71 33.36L39.67 41.07Z" id="b4b0Y8n0TG"></path><path d="M92.68 40.75C94.51 40.75 96 42.24 96 44.07C96 54.52 96 82.56 96 93.01C96 94.85 94.51 96.33 92.68 96.33C83.58 96.33 59.59 96.33 50.49 96.33C48.65 96.33 47.17 94.85 47.17 93.01C47.17 82.56 47.17 54.52 47.17 44.07C47.17 42.24 48.65 40.75 50.49 40.75C59.59 40.75 83.58 40.75 92.68 40.75Z" id="b21wbtPZxv"></path><path d="M55.29 44C52.64 44 50.5 46.13 50.5 48.76C50.5 50.98 50.5 62.08 50.5 82.06L55.29 82.06L55.29 48.76L84.03 48.76L84.03 44C66.78 44 57.21 44 55.29 44ZM64.87 53.52C62.22 53.52 60.08 55.64 60.08 58.27C60.08 61.6 60.08 88.25 60.08 91.58C60.08 94.2 62.22 96.33 64.87 96.33C67.5 96.33 88.58 96.33 91.21 96.33C93.86 96.33 96 94.2 96 91.58C96 88.25 96 61.6 96 58.27C96 55.64 93.86 53.52 91.21 53.52C85.94 53.52 67.5 53.52 64.87 53.52ZM64.87 91.58L64.87 58.27L91.21 58.27L91.21 91.58L64.87 91.58Z" id="d3q9yBTPkq"></path></defs><g><g><g><use xlink:href="#cGmxfAP2r" opacity="1" fill="#999999" fill-opacity="1"></use></g><g><use xlink:href="#b6Qdizhtn" opacity="1" fill="#ffffff" fill-opacity="1"></use></g><g><use xlink:href="#fMh0TnqoE" opacity="1" fill="#999999" fill-opacity="1"></use></g><g><use xlink:href="#aWLryBbzT" opacity="1" fill="#999999" fill-opacity="1"></use></g><g><use xlink:href="#b4b0Y8n0TG" opacity="1" fill="#999999" fill-opacity="1"></use></g><g><use xlink:href="#b21wbtPZxv" opacity="1" fill="#ffffff" fill-opacity="1"></use></g><g><use xlink:href="#d3q9yBTPkq" opacity="1" fill="#999999" fill-opacity="1"></use><g><use xlink:href="#d3q9yBTPkq" opacity="1" fill-opacity="0" stroke="#000000" stroke-width="1" stroke-opacity="0"></use></g></g></g></g></svg>